<?xml version="1.0" encoding="utf-8" ?><svg id="eweb-logo" xmlns="http://www.w3.org/2000/svg" xmlns:xlink="http://www.w3.org/1999/xlink" width="1024" height="1024" viewBox="0 0 1024 1024"><g id="logo-body" fill="currentColor"><path class="logo-body" d="M540.23 295.853C540.848 282.911 544.076 272.546 551.822 261.947C560.618 249.826 573.963 241.802 588.793 239.717C605.447 237.207 620.369 241.213 634.153 250.697C638.823 253.911 640.18 259.408 636.293 263.823C629.776 271.227 619.58 262.119 612.652 259.803C606.672 257.428 602.255 256.756 595.844 256.884C571.869 257.362 550.437 284.288 560.674 307.309C562.456 311.315 568.643 316.058 571.827 319.747C581.964 331.492 589.007 347.972 590.065 363.465C600.502 349.533 610.853 335.536 621.117 321.476C643.894 320.771 666.951 321.717 689.768 321.138C692.767 321.061 695.819 321.168 698.817 321.299C703.83 328 714.258 338.158 720.29 344.408C728.25 352.654 736.465 361.777 744.563 369.737C744.455 388.148 744.928 406.609 744.874 425.025C744.859 430.209 744.983 435.276 744.553 440.451C733.946 449.589 721.319 462.459 711.228 472.506C714.111 472.484 717.049 472.53 719.937 472.546C721.971 474.258 723.53 475.947 725.355 477.848C737.811 490.826 750.06 504.179 763.077 516.592C764.149 537.275 763.438 565.584 763.536 586.705C748.179 602.901 730.068 620.759 714.174 636.571C691.44 637.098 665.2 636.97 642.546 636.509C633.846 625.438 623.766 610.433 615.259 598.734C595.882 572.487 576.703 546.095 557.723 519.559C550.44 509.44 543.095 499.364 535.69 489.333C531.818 484.07 527.02 477.066 522.839 472.359C532.778 472.792 544.692 472.504 554.73 472.456L608.427 472.187C633.316 472.099 660.839 473.214 685.329 472.253C691.494 467.328 698.493 460.159 704.208 454.616C711.744 447.308 719.702 439.803 727 432.295C727.779 415.699 727.529 394.076 727.107 377.447C724.027 373.236 718.094 367.409 714.448 363.534C706.682 355.283 698.581 347.249 690.966 338.853C671.679 338.498 650.476 338.943 631.062 339C627.739 342.597 623.113 348.999 620.031 353.011C612.211 363.187 604.486 373.435 596.856 383.754C579.786 405.234 562.924 428.564 546.011 450.412C538.262 449.873 528.252 450.107 520.314 450.094L477.651 449.914C474.739 444.463 461.632 428.435 457.189 422.413C436.411 394.26 414.642 366.771 393.43 338.888L333.912 339.392C321.51 351.615 308.257 365.921 295.99 378.491C296.171 396.26 296.209 414.029 296.103 431.798C308.695 444.842 325.486 459.387 338.982 472.35C392.681 471.999 446.383 472.034 500.082 472.454C482.742 497.225 463.961 522.281 446.134 546.732L411.64 594.996C401.51 609.04 391.679 622.104 381.832 636.501C358.086 636.448 334.307 636.94 310.56 636.764C294.692 620.761 275.96 602.567 260.844 586.235C259.956 565.519 260.598 538.863 260.645 517.884C262.464 515.077 302.233 475.05 306.17 472.312L312.836 471.694C307.79 466.484 301.128 460.624 295.772 455.636C290.398 450.633 284.182 444.592 278.602 440.076C278.763 417.361 279.055 393.576 278.555 370.919C282.283 366.272 289.127 359.927 293.56 355.376L326.776 321.411C351.439 321.227 378.331 320.669 402.837 321.463C411.365 334.3 424.296 349.651 433.809 362.502C436.297 347.742 440.766 332.452 450.78 321.088C460.473 310.087 467.912 305.647 464.874 288.887C462.931 278.516 456.981 269.327 448.313 263.311C436.503 255.288 421.301 254.204 408.473 260.472C403.961 262.647 393.408 270.237 389.486 265.837C373.656 248.08 412.299 239.954 422.626 239.206C458.116 237.62 480.979 262.007 483.52 296.321C504.755 289.038 518.794 289.275 540.23 295.853Z"/><path class="logo-body" d="M559.335 489.739C582.752 489.592 606.169 489.596 629.585 489.751C657.031 489.551 684.477 489.538 711.923 489.712C722.097 499.219 735.711 514.234 745.659 524.485C746.213 541.971 745.687 561.734 745.624 579.349C739.09 585.519 732.377 592.494 725.997 598.89C719.664 605.2 712.5 612.386 706.693 619.095C688.324 618.829 669.952 618.872 651.585 619.224C625.719 582.949 599.236 547.17 573.389 510.895C568.811 504.47 562.688 497.039 558.838 490.35L559.335 489.739Z"/><path class="logo-body" d="M452.323 489.748C456.559 489.749 460.796 489.785 465.032 489.855C460.572 498.098 448.01 513.161 442.077 521.867C419.768 554.604 395.112 586.531 372.57 619.053C354.452 618.868 336.333 618.832 318.215 618.946C313.791 614.828 308.899 609.659 304.588 605.314C295.993 596.412 287.298 587.607 278.504 578.902C277.76 563.278 278.018 540.146 278.309 524.398C285.891 517.604 292.194 510.77 299.195 503.413C303.022 499.392 308.284 493.367 312.539 490.125C326.317 489.281 346.613 489.986 361.021 489.985L452.323 489.748Z"/><path class="logo-body" d="M512.232 491.12C526.862 510.991 544.842 534.349 557.985 555.1L591.924 600.98C599.027 611.385 609.274 624.094 615.614 633.987C619.078 637.368 617.374 640.648 614.837 644.224C607.83 654.1 600.601 663.847 593.436 673.612L549.739 732.823L526.819 764.171C523.412 768.802 516.032 779.96 511.469 782.263C507.342 780.857 471.204 729.167 466.107 722.068C456.658 709.077 447.143 696.134 437.563 683.238L415.122 652.913C411.984 648.587 408.516 644.158 405.904 639.521C404.86 637.667 407.082 635.461 408.36 634.412C413.393 625.856 425.73 610.017 431.891 601.617C433.669 598.951 435.729 596.106 437.673 593.553C447.287 580.925 456.181 567.266 466.05 554.874C477.991 536.73 498.082 507.565 512.232 491.12Z"/><path class="logo-body" d="M512.232 491.12C526.862 510.991 544.842 534.349 557.985 555.1L591.924 600.98C589.777 601.671 586.686 601.372 584.34 601.398C533.645 601.965 482.543 600.563 431.891 601.617C433.669 598.951 435.729 596.106 437.673 593.553C447.287 580.925 456.181 567.266 466.05 554.874C477.991 536.73 498.082 507.565 512.232 491.12Z"/><path class="logo-body" d="M456.739 678.482L567.009 678.462C557.533 692.385 545.729 708.112 535.599 721.667L511.933 753.881C507.537 747.068 497.756 734.773 492.617 727.8L456.739 678.482Z"/></g><g id="logo-accent" fill="currentColor"><path class="logo-accent" d="M508.635 309.213L509.45 309.168C525.694 308.336 540.433 314.062 552.4 324.914C564.556 335.936 571.43 350.853 572.19 367.212C572.492 373.712 572.389 382.836 569.69 388.876C567.586 393.583 540.24 428.186 536.211 432.565L515.75 432.476L487.082 432.494C478.26 420.35 468.686 408.737 459.776 396.638C453.722 388.417 452.792 384.562 451.914 374.546C448.944 340.666 474.909 311.412 508.635 309.213Z"/><path class="logo-accent" d="M512.232 491.12C526.862 510.991 544.842 534.349 557.985 555.1C548.344 554.603 535.708 554.947 525.929 554.95L466.05 554.874C477.991 536.73 498.082 507.565 512.232 491.12Z"/><path class="logo-accent" d="M591.924 600.98C599.027 611.385 609.274 624.094 615.614 633.987L475.399 634.144L432.067 634.137C425.354 634.143 414.805 633.848 408.36 634.412C413.393 625.856 425.73 610.017 431.891 601.617C482.543 600.563 533.645 601.965 584.34 601.398C586.686 601.372 589.777 601.671 591.924 600.98Z"/></g></svg>